<?xml version="1.0" encoding="UTF-8"?>
<svg id="_レイヤー_1" data-name="レイヤー 1" xmlns="http://www.w3.org/2000/svg" viewBox="0 0 137.05 180.4">
  <path d="M123.99,149.3h.08l-.22-.45c-5.56-10.14-12.98-57.66-9.77-52.49l-21.97,3c2.86-2.76-15.44,43.89-18.55,47.37l-1.23,2.57h.34c-.57,2.02-.87,4.13-.87,6.31,0,13.69,11.88,24.79,26.53,24.79s26.53-11.1,26.53-24.79c0-2.18-.3-4.3-.87-6.31Z"/>
  <path d="M72.29,0C36.52,0,7.53,29,7.53,64.76s29,64.76,64.76,64.76,64.76-29,64.76-64.76S108.06,0,72.29,0ZM72.16,125.53c-33.37,0-60.43-27.06-60.43-60.43S38.79,4.67,72.16,4.67s-30.46,75.91-30.46,75.91c0,0,63.84,44.95,30.46,44.95Z"/>
</svg>