<?xml version="1.0" encoding="UTF-8"?>
<svg id="line" xmlns="http://www.w3.org/2000/svg" version="1.1" viewBox="0 0 32 32">
  <!-- Generator: Adobe Illustrator 30.1.0, SVG Export Plug-In . SVG Version: 2.1.1 Build 136)  -->
  <path d="M27.73,7.24H7.35l-.27-.98c-.29-1.05-1.25-1.79-2.34-1.79h-1.73c-.28,0-.5.23-.49.51,0,.27.22.48.49.49h1.73c.64,0,1.2.43,1.37,1.05l3.54,12.97.29,1.08h-.9c-1.22,0-2.2.99-2.2,2.21s.99,2.2,2.2,2.2h.35c-.78,1.08-.55,2.59.53,3.37s2.59.55,3.37-.53c.62-.85.62-1.99,0-2.84h6.59c-.78,1.08-.55,2.59.53,3.37s2.59.55,3.37-.53c.62-.85.62-1.99,0-2.84h.8c.28,0,.5-.23.49-.51,0-.27-.22-.48-.49-.49h-15.55c-.67,0-1.2-.54-1.2-1.21s.54-1.2,1.2-1.2h15.75c.81,0,1.51-.54,1.72-1.32l2.93-10.76c.25-.96-.32-1.94-1.28-2.2-.15-.04-.29-.06-.44-.06h.02ZM11.35,27.82c-.78-.02-1.4-.66-1.39-1.44,0-.76.63-1.37,1.39-1.39.78.02,1.4.66,1.39,1.44,0,.76-.63,1.37-1.39,1.39ZM21.85,27.82c-.78-.01-1.41-.66-1.39-1.44.01-.76.63-1.38,1.39-1.39.78.01,1.41.65,1.4,1.44-.01.77-.63,1.39-1.4,1.4h0ZM28.49,9.24l-.7,2.56h-4.06c.27-1.48.61-3.34.65-3.55h3.34c.44,0,.79.36.79.8,0,.07,0,.13-.03.2h.01ZM26.57,16.29h-3.65c.3-1.62.34-1.86.64-3.5h3.97l-.95,3.5h0ZM10.99,20.58l-.22-.81-.67-2.47h3.04l.6,3.29h-2.75ZM17.5,11.8h-4.35c-.28-1.52-.59-3.25-.65-3.55h5v3.55ZM18.5,8.24h4.87c-.05.3-.37,2.03-.65,3.55h-4.23v-3.55h.01ZM17.5,12.8v3.5h-3.53c-.29-1.6-.34-1.84-.64-3.5,0,0,4.17,0,4.17,0ZM12.95,16.29h-3.13l-.95-3.5h3.44s.64,3.5.64,3.5ZM14.15,17.29h3.35v3.29h-2.75c-.04-.2-.36-1.97-.6-3.29h0ZM18.5,17.29h3.22c-.24,1.32-.56,3.09-.6,3.29h-2.62v-3.29ZM18.5,16.29v-3.5h4.04c-.3,1.66-.35,1.9-.64,3.5h-3.4ZM11.48,8.24l.65,3.55h-3.53l-.97-3.55h3.85ZM25.56,20c-.09.34-.41.58-.76.58h-2.67c.05-.28.35-1.93.6-3.29h3.56l-.74,2.71h.01Z"/>
</svg>