<?xml version="1.0" encoding="UTF-8"?>
<svg id="_レイヤー_1" data-name="レイヤー 1" xmlns="http://www.w3.org/2000/svg" viewBox="0 0 48 48">
  <defs>
    <style>
      .cls-1 {
        fill: #181341;
      }

      .cls-2 {
        fill: #be574e;
      }
    </style>
  </defs>
  <rect class="cls-2" width="48" height="48"/>
  <path class="cls-1" d="M11.87,20.07c0-1.23.67-1.05,1.89-1.05h3.13c1.23,0,1.95,0,1.95,1.24v5.87c0,3.57,2.01,5.69,5.19,5.69s5.13-2.12,5.13-5.69v-5.81c0-1.23.82-1.3,2.05-1.3h3c1.23,0,1.92-.18,1.92,1.05v6.06c0,7.64-4.91,12.44-12.1,12.44s-12.16-4.8-12.16-12.44v-6.06Z"/>
  <path class="cls-1" d="M19.82,17.35c2.4,0,4.13-1.67,4.13-4.02s-1.78-3.9-4.13-3.9-4.07,1.67-4.07,3.9c0,2.34,1.73,4.02,4.07,4.02Z"/>
  <path class="cls-1" d="M29.33,17.35c2.4,0,4.13-1.67,4.13-4.02s-1.78-3.9-4.13-3.9-4.07,1.67-4.07,3.9c0,2.34,1.73,4.02,4.07,4.02Z"/>
</svg>